# xmcd
#
# Track frame offsets: 
#        150
#        11779
#        25486
#        39716
#        54180
#        66188
#        79049
#        92066
#        106720
#        119336
#        130169
#        142404
#        155103
#        167637
#        180343
#        192982
#        207376
#        219112
#        230870
#        245031
#
# Disc length: 3445 seconds
#
# Revision: 0
# Processed by: cddbd v1.5.2PL0 Copyright (c) Steve Scherf et al.
# Submitted via: ExactAudioCopy v0.99pb4
#
DISCID=210d7314
DTITLE=The Shelton Brothers - Rompin' and Stompin' Around
DYEAR=2002
DGENRE=
TTITLE0=Rompin' and Stompin' Around
TTITLE1=A Prisoner's Dream
TTITLE2=Budded Roses
TTITLE3=I'm Thinking Tonight of My Blue Eyes
TTITLE4=That's a Habit I Never Had
TTITLE5=It's Hard to Love and Not Be Loved
TTITLE6=Deep Elem Blues
TTITLE7=Lover's Farewell
TTITLE8=When It's Night Time in Nevada
TTITLE9=Who's Gonna Cut My Baby's Kindling
TTITLE10=She Was Happy Till She Met You
TTITLE11=Somebody Stole My Darling
TTITLE12=Ridin' on a Hump Back Mule
TTITLE13=Tell Me with Your Blue Eyes
TTITLE14=Story of Seven Roses
TTITLE15=Sweet Evalina
TTITLE16=Way Down in Georgia
TTITLE17=At the Shelby County Fair
TTITLE18=Match Box Blues
TTITLE19=Just Because
EXTD=
EXTT0=
EXTT1=
EXTT2=
EXTT3=
EXTT4=
EXTT5=
EXTT6=
EXTT7=
EXTT8=
EXTT9=
EXTT10=
EXTT11=
EXTT12=
EXTT13=
EXTT14=
EXTT15=
EXTT16=
EXTT17=
EXTT18=
EXTT19=
PLAYORDER=
